# xmcd
#
# Track frame offsets:
#	150
#	1562
#	3045
#	18097
#	20262
#	22790
#	35825
#	45362
#	48015
#	50745
#	55885
#	59910
#	64962
#	68740
#	71477
#	74212
#	79030
#
# Disc length: 1274 seconds
#
# Revision: 1
# Processed by: cddbd v1.5.1PL0 Copyright (c) Steve Scherf et al.
# Submitted via: CDex 1.50Beta5
#
DISCID=d704f811
DTITLE=山下達郎 - cm collection vol.2
DYEAR=1900
DGENRE=Other
TTITLE0=資生堂 バスボン‘74
TTITLE1=ラグノオ シュガーレス・ケーキ‘75
TTITLE2=資生堂 店頭BGM‘75「南の島」
TTITLE3=資生堂 MG5‘76
TTITLE4=不二家 ハートチョコレート‘76バレンタイン編)
TTITLE5=資生堂 店頭BGM‘76「HOT HOT」
TTITLE6=資生堂 FRESURE‘78
TTITLE7=日立マクセル UD‘80(秋編)「RIDE ON TIME」
TTITLE8=ホンダ インテグラ‘85「風の回廊」
TTITLE9=東芝 Rupo‘90「HYPER BOY」
TTITLE10=ららぽーと スキードーム SSAWS‘93「湾岸スキーヤー」
TTITLE11=IBM Aptiva‘95
TTITLE12=ミスタードーナツ‘96「ドーナツソング」
TTITLE13=SANYO FRAGILE‘98「FRAGILE」
TTITLE14=SANYO Burberrys BLUE LABEL‘98
TTITLE15=NTT Communications‘99「LOVE CAN GO THE DISTANCE」
TTITLE16=ONLY WITH YOU(instrumental)‘84
EXTD=
EXTT0=
EXTT1=
EXTT2=
EXTT3=
EXTT4=
EXTT5=
EXTT6=
EXTT7=
EXTT8=
EXTT9=
EXTT10=
EXTT11=
EXTT12=
EXTT13=
EXTT14=
EXTT15=
EXTT16=
PLAYORDER=
